<svg width="2048" height="2048" viewBox="0 0 2048 2048" fill="none" xmlns="http://www.w3.org/2000/svg">
<path fill-rule="evenodd" clip-rule="evenodd" d="M1693 689.5V355L1024 355V689.368C1023.93 504.689 874.196 355 689.5 355H355V1024H689.5C504.761 1024 355 1173.76 355 1358.5L355 1693H1024V1358.5C1024 1543.24 1173.76 1693 1358.5 1693H1693V1024H1358.63C1543.31 1023.93 1693 874.196 1693 689.5Z" fill="white"/>
<path d="M721.272 1373L515.363 674.818H606.401C676.706 674.818 737.578 723.648 752.829 792.279L822.181 1104.36H827.636L940.818 674.818H1107.18L1220.36 1105.73H1225.82L1321.27 674.818H1532.64L1326.73 1373H1256.52C1190.49 1373 1132.23 1329.82 1113.01 1266.65L1026.73 983H1021.27L902.636 1373H721.272Z" fill="black"/>
</svg>
