<svg width="2048" height="2048" viewBox="0 0 2048 2048" fill="none" xmlns="http://www.w3.org/2000/svg">
<path fill-rule="evenodd" clip-rule="evenodd" d="M1693 689.5V355L1024 355V689.368C1023.93 504.689 874.196 355 689.5 355H355V1024H689.5C504.761 1024 355 1173.76 355 1358.5L355 1693H1024V1358.5C1024 1543.24 1173.76 1693 1358.5 1693H1693V1024H1358.63C1543.31 1023.93 1693 874.196 1693 689.5Z" fill="black"/>
<path d="M1412.31 569.08V1474.05H1286.16C1236.78 1474.05 1190.55 1449.74 1162.57 1409.05L881.315 1000.09C880.667 999.152 879.596 998.589 878.452 998.589V998.589C876.532 998.589 874.977 1000.14 874.977 1002.06V1466.05C874.977 1470.47 871.395 1474.05 866.977 1474.05H629.29V569.08H758.405C808.103 569.08 854.575 593.695 882.496 634.809L1158.17 1040.75C1159.03 1042.02 1160.47 1042.78 1162 1042.78V1042.78C1164.55 1042.78 1166.62 1040.71 1166.62 1038.16V577.08C1166.62 572.662 1170.2 569.08 1174.62 569.08H1412.31Z" fill="white"/>
</svg>
